{"title":"The Rocket (2013) BDRip 1080p","uid":11206965,"size":12756403661,"categoryP":"video","categoryS":"hd___movies","magnet":"?xt=urn:btih:55640d2ec30078f2baa4758d66c17589e8803164&amp;dn=The+Rocket+%282013%29+BDRip+1080p&amp;tr=udp%3A%2F%2Ftracker.openbittorrent.com%3A80&amp;tr=udp%3A%2F%2Fopen.demonii.com%3A1337&amp;tr=udp%3A%2F%2Ftracker.coppersurfer.tk%3A6969&amp;tr=udp%3A%2F%2Fexodus.desync.com%3A6969","seeders":2,"leechers":0,"uploader":"neni69","files":1,"time":1413233245,"description":" &lt;a href=&quot; http://mediaclub.tv/&quot; rel=&quot;nofollow&quot; target=&quot;_NEW&quot;&gt; http://mediaclub.tv/&lt;/a&gt;   Welcome to MediaClub\n\n===================================================================\n                               (RUS)\n\nGeneral\nFormat                                   : Matroska\nFormat version                           : Version 2\nFile size                                : 11.9 GiB\nDuration                                 : 1h 35mn\nOverall bit rate                         : 17.8 Mbps\nEncoded date                             : UTC 2014-10-12 17:34:18\nWriting application                      : mkvmerge v5.5.0 ('Healer') built on Apr  6 2012 21:43:24\nWriting library                          : libebml v1.2.3 + libmatroska v1.3.0\n\nVideo\nID                                       : 1\nFormat                                   : AVC\nFormat/Info                              : Advanced Video Codec\nFormat profile                           : &lt;a class=&quot;__cf_email__&quot; href=&quot;/cdn-cgi/l/email-protection&quot; data-cfemail=&quot;ace4c5cbc4ece098829d&quot;&gt;[email&amp;#160;protected]&lt;/a&gt;&lt;script cf-hash='f9e31' type=&quot;text/javascript&quot;&gt;\n/* &lt;![CDATA[ */!function(){try{var t=&quot;currentScript&quot;in document?document.currentScript:function(){for(var t=document.getElementsByTagName(&quot;script&quot;),e=t.length;e--;)if(t[e].getAttribute(&quot;cf-hash&quot;))return t[e]}();if(t&amp;&amp;t.previousSibling){var e,r,n,i,c=t.previousSibling,a=c.getAttribute(&quot;data-cfemail&quot;);if(a){for(e=&quot;&quot;,r=parseInt(a.substr(0,2),16),n=2;a.length-n;n+=2)i=parseInt(a.substr(n,2),16)^r,e+=String.fromCharCode(i);e=document.createTextNode(e),c.parentNode.replaceChild(e,c)}}}catch(u){}}();/* ]]&gt; */&lt;/script&gt;\nFormat settings, CABAC                   : Yes\nFormat settings, ReFrames                : 5 frames\nCodec ID                                 : V_MPEG4/ISO/AVC\nDuration                                 : 1h 35mn\nWidth                                    : 1 920 pixels\nHeight                                   : 816 pixels\nDisplay aspect ratio                     : 2.35:1\nFrame rate mode                          : Constant\nFrame rate                               : 24.000 fps\nColor space                              : YUV\nChroma subsampling                       : 4:2:0\nBit depth                                : 8 bits\nScan type                                : Progressive\nTitle                                    : The Rocket 2013 BDRip 1080p\nWriting library                          : x264 core 142 r2431kMod ac76440\nEncoding settings                        : cabac=1 / ref=5 / deblock=1:-3:-3 / analyse=0x3:0x133 / me=umh / subme=11 / psy=1 / fade_compensate=0.00 / psy_rd=0.90:0.00 / mixed_ref=1 / me_range=16 / chroma_me=1 / trellis=2 / 8x8dct=1 / cqm=0 / deadzone=21,11 / fast_pskip=0 / chroma_qp_offset=-2 / threads=12 / lookahead_threads=3 / sliced_threads=0 / nr=0 / decimate=0 / interlaced=0 / bluray_compat=0 / constrained_intra=0 / fgo=0 / bframes=11 / b_pyramid=2 / b_adapt=2 / b_bias=0 / direct=3 / weightb=1 / open_gop=0 / weightp=2 / keyint=250 / keyint_min=24 / scenecut=40 / intra_refresh=0 / rc=crf / mbtree=0 / crf=17.0000 / qcomp=0.60 / qpmin=0 / qpmax=69 / qpstep=4 / ip_ratio=1.40 / pb_ratio=1.30 / aq=3:0.85 / zones=131468,137688,crf=25\nLanguage                                 : Lao\nDefault                                  : Yes\nForced                                   : No\n\nAudio #1\nID                                       : 2\nFormat                                   : AC-3\nFormat/Info                              : Audio Coding 3\nMode extension                           : CM (complete main)\nFormat settings, Endianness              : Big\nCodec ID                                 : A_AC3\nDuration                                 : 1h 35mn\nBit rate mode                            : Constant\nBit rate                                 : 448 Kbps\nChannel count                            : 6 channels\nChannel positions                        : Front: L C R, Side: L R, LFE\nSampling rate                            : 48.0 KHz\nBit depth                                : 16 bits\nCompression mode                         : Lossy\nStream size                              : 306 MiB (3%)\nTitle                                    : Russian AC3 6ch 448 Kbps\nLanguage                                 : Russian\nDefault                                  : Yes\nForced                                   : No\n\nAudio #2\nID                                       : 3\nFormat                                   : AC-3\nFormat/Info                              : Audio Coding 3\nMode extension                           : CM (complete main)\nFormat settings, Endianness              : Big\nCodec ID                                 : A_AC3\nDuration                                 : 1h 35mn\nBit rate mode                            : Constant\nBit rate                                 : 640 Kbps\nChannel count                            : 6 channels\nChannel positions                        : Front: L C R, Side: L R, LFE\nSampling rate                            : 48.0 KHz\nBit depth                                : 16 bits\nCompression mode                         : Lossy\nStream size                              : 438 MiB (4%)\nTitle                                    : Lao AC3 6ch 640 Kbps\nLanguage                                 : Lao\nDefault                                  : No\nForced                                   : No\n\nAudio #3\nID                                       : 4\nFormat                                   : AAC\nFormat/Info                              : Advanced Audio Codec\nFormat profile                           : LC\nCodec ID                                 : A_AAC\nDuration                                 : 1h 35mn\nChannel count                            : 2 channels\nChannel positions                        : Front: L R\nSampling rate                            : 48.0 KHz\nCompression mode                         : Lossy\nDelay relative to video                  : 20ms\nTitle                                    : English Commentary AAC 2ch 218 Kbps\nLanguage                                 : English\nDefault                                  : No\nForced                                   : No\n\nText #1\nID                                       : 5\nFormat                                   : UTF-8\nCodec ID                                 : S_TEXT/UTF8\nCodec ID/Info                            : UTF-8 Plain Text\nTitle                                    : Russian\nLanguage                                 : Russian\nDefault                                  : No\nForced                                   : No\n\nText #2\nID                                       : 6\nFormat                                   : UTF-8\nCodec ID                                 : S_TEXT/UTF8\nCodec ID/Info                            : UTF-8 Plain Text\nTitle                                    : English\nLanguage                                 : English\nDefault                                  : No\nForced                                   : No\n\nMenu\n00:00:00.000                             : en:00:00:00.000\n00:08:14.917                             : en:00:08:14.917\n00:15:40.500                             : en:00:15:40.500\n00:22:24.958                             : en:00:22:24.958\n00:27:16.917                             : en:00:27:16.917\n00:32:50.583                             : en:00:32:50.583\n00:40:57.458                             : en:00:40:57.458\n00:49:37.917                             : en:00:49:37.917\n01:01:14.208                             : en:01:01:14.208\n01:10:53.792                             : en:01:10:53.792\n01:20:47.458                             : en:01:20:47.458\n01:31:22.833                             : en:01:31:22.833","torrent":{"xt":"urn:btih:55640d2ec30078f2baa4758d66c17589e8803164","amp;dn":"The+Rocket+%282013%29+BDRip+1080p","amp;tr":["udp%3A%2F%2Ftracker.openbittorrent.com%3A80","udp%3A%2F%2Fopen.demonii.com%3A1337","udp%3A%2F%2Ftracker.coppersurfer.tk%3A6969","udp%3A%2F%2Fexodus.desync.com%3A6969"],"infoHash":"55640d2ec30078f2baa4758d66c17589e8803164","infoHashBuffer":{"type":"Buffer","data":[85,100,13,46,195,0,120,242,186,164,117,141,102,193,117,137,232,128,49,100]},"announce":[],"urlList":[]}}